# xmcd
#
# Track frame offsets:
#	150
#	13635
#	26850
#	43870
#	57370
#	71977
#	88857
#	100582
#	113852
#	129450
#	141770
#	153130
#	165030
#	176747
#	191905
#	213387
#	228292
#	243067
#
# Disc length: 3431 seconds
#
# Revision: 2
# Processed by: cddbd v1.5.2PL0 Copyright (c) Steve Scherf et al.
# Submitted via: EasyCDDAExtractor 2011.0.0.0
#
DISCID=f20d6512
DTITLE=Jean Michel - Jean Michel de france Pan Flute 1
DYEAR=1004
DGENRE=Acid Jazz
TTITLE0=Memory
TTITLE1=Exodus
TTITLE2=My Way
TTITLE3=Serenade Pour Deux Amours
TTITLE4=Strangers in the Night
TTITLE5=Anna Maria Conti
TTITLE6=Vayas Con Dios
TTITLE7=La Desesperance
TTITLE8=Michele
TTITLE9=L'oceon
TTITLE10=Lara's Theme
TTITLE11=Lettre a ma Mere
TTITLE12=Stranger in Paradise
TTITLE13=Dernier Regard
TTITLE14=Love Story
TTITLE15=L'amour Naufrage
TTITLE16=Anastasia
TTITLE17=Guantanamera
EXTD=
EXTT0=
EXTT1=
EXTT2=
EXTT3=
EXTT4=
EXTT5=
EXTT6=
EXTT7=
EXTT8=
EXTT9=
EXTT10=
EXTT11=
EXTT12=
EXTT13=
EXTT14=
EXTT15=
EXTT16=
EXTT17=
PLAYORDER=
